<svg width="44" height="44" viewBox="0 0 44 44" fill="none" xmlns="http://www.w3.org/2000/svg">
<path d="M22.26 38.2759C22.104 38.2759 21.948 38.2239 21.844 38.1719C21.272 37.8079 20.7 37.4439 20.024 37.0799C16.852 35.2079 12.952 32.9199 11.704 29.2799C10.612 25.9519 12.432 23.0399 14.824 21.8959C16.8 20.9599 19.66 20.9599 21.896 23.6119C23.976 20.8039 26.888 20.6479 28.812 21.4799C31.256 22.5199 33.284 25.3279 32.348 28.7079C31.308 32.4519 27.512 34.9479 24.496 36.9759C23.872 37.3919 23.248 37.8079 22.728 38.1719C22.572 38.2239 22.416 38.2759 22.26 38.2759ZM17.268 22.8839C16.644 22.8839 16.02 23.0399 15.5 23.2999C13.732 24.1319 12.328 26.3159 13.16 28.8119C14.2 31.9319 17.84 34.0639 20.752 35.7799C21.272 36.0919 21.74 36.3519 22.156 36.6119C22.572 36.2999 23.04 35.9879 23.56 35.6759C26.368 33.8039 29.904 31.4639 30.788 28.2919C31.464 25.7959 30.008 23.6639 28.188 22.9359C26.524 22.2599 24.184 22.5199 22.572 25.3799C22.416 25.6399 22.208 25.7439 21.896 25.7959C21.584 25.7959 21.376 25.6919 21.22 25.4319C20.076 23.5599 18.62 22.8839 17.268 22.8839Z" fill="#30AD1F"/>
<path d="M28.5521 28.136C28.5001 28.136 28.3961 28.136 28.3441 28.084C27.9281 27.98 27.6681 27.564 27.8241 27.148C27.9801 26.576 27.6161 26.056 27.1481 25.9C26.7321 25.796 26.5241 25.328 26.6281 24.912C26.7321 24.496 27.2001 24.288 27.6161 24.392C28.7601 24.756 29.7481 26.004 29.3321 27.512C29.1761 27.928 28.8641 28.136 28.5521 28.136Z" fill="#30AD1F"/>
<path d="M42.3319 43.892H1.66794C1.25194 43.892 0.887939 43.528 0.887939 43.112C0.887939 42.696 1.25194 42.332 1.66794 42.332H42.3319C42.7479 42.332 43.1119 42.696 43.1119 43.112C43.1119 43.528 42.7479 43.892 42.3319 43.892Z" fill="#30AD1F"/>
<path d="M36.0919 43.892H7.90794C7.49194 43.892 7.12794 43.58 7.12794 43.164L5.98394 19.504H1.61594C1.19994 19.504 0.835938 19.14 0.835938 18.724V18.62C0.835938 18.412 0.939937 18.204 1.09594 18.048L21.4799 0.26397C21.7919 0.00396972 22.2079 0.00396972 22.5199 0.26397L42.9039 18.048C43.0599 18.204 43.1639 18.412 43.1639 18.62V18.724C43.1639 19.14 42.7999 19.504 42.3839 19.504H38.0159L36.8719 43.164C36.8199 43.58 36.5079 43.892 36.0919 43.892ZM8.68794 42.332H35.3639L36.5079 18.672C36.5079 18.256 36.8719 17.944 37.2879 17.944H40.4599L21.9999 1.92797L3.59194 17.944H6.76394C7.17994 17.944 7.54394 18.256 7.54394 18.672L8.68794 42.332Z" fill="#30AD1F"/>
<path d="M21.9999 16.1239C20.4399 16.1239 19.1399 14.8239 19.1399 13.2639C19.1399 11.7039 20.4399 10.4039 21.9999 10.4039C23.5599 10.4039 24.8599 11.7039 24.8599 13.2639C24.8599 14.8239 23.5599 16.1239 21.9999 16.1239ZM21.9999 12.0159C21.2719 12.0159 20.6999 12.5879 20.6999 13.3159C20.6999 14.0439 21.2719 14.6159 21.9999 14.6159C22.7279 14.6159 23.2999 14.0439 23.2999 13.3159C23.2999 12.5879 22.7279 12.0159 21.9999 12.0159Z" fill="#30AD1F"/>
</svg>
