<svg width="52" height="52" viewBox="0 0 52 52" fill="none" xmlns="http://www.w3.org/2000/svg">
<path d="M26 49.9931C12.7725 49.9931 2.00684 39.2275 2.00684 26C2.00684 12.7725 12.7725 2.00684 26 2.00684C39.2275 2.00684 49.9931 12.7725 49.9931 26C49.9931 39.2275 39.2275 49.9931 26 49.9931ZM26 3.63184C13.6662 3.63184 3.63184 13.6662 3.63184 26C3.63184 38.3337 13.6662 48.3681 26 48.3681C38.3337 48.3681 48.3681 38.3337 48.3681 26C48.3681 13.6662 38.3337 3.63184 26 3.63184Z" fill="#30AD1F"/>
<path d="M26.0001 46.3776C14.7632 46.3776 5.62256 37.2369 5.62256 26.0001C5.62256 14.7632 14.7632 5.62256 26.0001 5.62256C37.2369 5.62256 46.3776 14.7632 46.3776 26.0001C46.3776 37.2369 37.2369 46.3776 26.0001 46.3776ZM26.0001 7.24756C15.6569 7.24756 7.24756 15.6569 7.24756 26.0001C7.24756 36.3432 15.6569 44.7526 26.0001 44.7526C36.3432 44.7526 44.7526 36.3351 44.7526 26.0001C44.7526 15.6651 36.3432 7.24756 26.0001 7.24756Z" fill="#30AD1F"/>
<path d="M18.5819 30.2169C17.1762 30.2169 15.6812 29.965 14.2919 29.2175C11.7975 27.8688 10.2212 25.2444 9.6281 21.4175C9.5631 20.995 9.83123 20.5969 10.2456 20.4994C10.5544 20.4263 17.9156 18.7525 22.0269 22.0431C23.8062 23.465 24.7 25.5613 24.6837 28.2913C24.6837 28.6081 24.4969 28.8925 24.2125 29.0225C24.05 29.0875 21.5312 30.2169 18.5819 30.2169ZM11.3669 21.9375C11.9519 24.8138 13.195 26.78 15.0475 27.7794C17.9644 29.3556 21.7181 28.2263 23.0344 27.7306C22.9369 25.7969 22.2544 24.31 21.0031 23.3025C18.2081 21.0681 13.2519 21.6288 11.3669 21.9375Z" fill="#30AD1F"/>
<path d="M26.1707 43.3875C25.7238 43.3875 25.3582 43.0219 25.3582 42.575V35.1C25.3582 26.4631 17.7207 26.0975 17.3957 26.0894C16.9488 26.0731 16.5994 25.6994 16.6076 25.2525C16.6238 24.8056 16.9813 24.4319 17.4444 24.4725C17.5419 24.4725 26.9751 24.9194 26.9751 35.1081V42.5831C26.9832 43.03 26.6257 43.3875 26.1707 43.3875Z" fill="#30AD1F"/>
<path d="M33.7676 30.2168C30.8182 30.2168 28.2994 29.0875 28.1451 29.0225C27.8607 28.8925 27.6738 28.6081 27.6738 28.2912C27.6576 25.5693 28.5513 23.465 30.3307 22.0431C34.4419 18.7606 41.8032 20.4262 42.1119 20.4993C42.5263 20.5968 42.7944 20.995 42.7294 21.4175C42.1282 25.2443 40.5601 27.8768 38.0657 29.2175C36.6763 29.965 35.1732 30.2168 33.7676 30.2168ZM29.3069 27.7387C30.6313 28.2262 34.3851 29.3637 37.3019 27.7875C39.1626 26.78 40.3975 24.8218 40.9825 21.9456C39.0975 21.6287 34.1413 21.0762 31.3382 23.3187C30.0788 24.31 29.4044 25.7968 29.3069 27.7387Z" fill="#30AD1F"/>
<path d="M26.1707 43.3875C25.7238 43.3875 25.3582 43.0218 25.3582 42.575V35.1C25.3582 24.9112 34.7913 24.4725 34.8888 24.4643C35.3519 24.4237 35.7175 24.7975 35.7257 25.2443C35.7338 25.6912 35.3925 26.065 34.9457 26.0812C34.6207 26.0975 26.9832 26.4875 26.9832 35.0918V42.5668C26.9832 43.03 26.6257 43.3875 26.1707 43.3875Z" fill="#30AD1F"/>
</svg>
