<svg width="34" height="35" viewBox="0 0 34 35" fill="none" xmlns="http://www.w3.org/2000/svg">
<g clip-path="url(#clip0_637_19064)">
<path d="M29.0208 5.47917C25.81 2.26833 21.5408 0.5 17 0.5C12.4592 0.5 8.19002 2.26833 4.97917 5.47917C1.76833 8.69002 0 12.9592 0 17.5C0 22.0408 1.76833 26.31 4.97917 29.5208C8.19002 32.7317 12.4592 34.5 17 34.5C21.5408 34.5 25.81 32.7317 29.0208 29.5208C32.2317 26.31 34 22.0408 34 17.5C34 12.9592 32.2317 8.69002 29.0208 5.47917ZM7.3781 29.008C7.93944 24.178 12.0922 20.4489 17 20.4489C19.5872 20.4489 22.0202 21.4569 23.8502 23.2867C25.3962 24.833 26.3713 26.8519 26.6222 29.0077C24.0152 31.1911 20.6586 32.5078 17 32.5078C13.3414 32.5078 9.98506 31.1914 7.3781 29.008ZM17 18.397C14.1531 18.397 11.8367 16.0806 11.8367 13.2337C11.8367 10.3865 14.1531 8.07031 17 8.07031C19.8469 8.07031 22.1633 10.3865 22.1633 13.2337C22.1633 16.0806 19.8469 18.397 17 18.397ZM28.3368 27.3237C27.8291 25.2771 26.7705 23.3899 25.2588 21.8781C24.0344 20.6538 22.5859 19.7352 21.0062 19.1596C22.9052 17.8717 24.1555 15.6959 24.1555 13.2337C24.1555 9.28819 20.9455 6.07812 17 6.07812C13.0545 6.07812 9.84447 9.28819 9.84447 13.2337C9.84447 15.6972 11.0958 17.8738 12.9964 19.1615C11.543 19.6911 10.198 20.5101 9.04085 21.5881C7.36513 23.1487 6.20146 25.1385 5.66191 27.3222C3.37686 24.688 1.99219 21.2527 1.99219 17.5C1.99219 9.22464 8.72464 2.49219 17 2.49219C25.2754 2.49219 32.0078 9.22464 32.0078 17.5C32.0078 21.2535 30.6226 24.6895 28.3368 27.3237Z" fill="#1A1A1A"/>
</g>
<defs>
<clipPath id="clip0_637_19064">
<rect width="34" height="34" fill="white" transform="translate(0 0.5)"/>
</clipPath>
</defs>
</svg>
